<svg xmlns="http://www.w3.org/2000/svg" xmlns:xlink="http://www.w3.org/1999/xlink" width="500" zoomAndPan="magnify" viewBox="0 0 375 374.999991" height="500" preserveAspectRatio="xMidYMid meet" version="1.0"><defs><g/><clipPath id="d12b8e70a6"><path d="M 27.5 99.445312 L 187.488281 99.445312 L 187.488281 159 L 27.5 159 Z M 27.5 99.445312 " clip-rule="nonzero"/></clipPath><clipPath id="58825333b6"><path d="M 49.753906 138.585938 L 60.484375 138.585938 L 60.484375 198.445312 L 49.753906 198.445312 Z M 49.753906 138.585938 " clip-rule="nonzero"/></clipPath></defs><g clip-path="url(#d12b8e70a6)"><path fill="#ffffff" d="M 56.535156 118.390625 L 56.53125 118.382812 M 187.464844 129.175781 L 187.488281 129.167969 L 187.441406 129.167969 L 151.25 115.71875 L 151.230469 115.695312 L 151.199219 115.703125 L 126.203125 106.414062 L 126.191406 106.410156 L 126.183594 106.390625 L 126.148438 106.394531 L 107.484375 99.460938 L 107.492188 99.445312 L 77.527344 110.578125 L 56.527344 118.382812 L 27.5 129.167969 L 65.292969 143.210938 L 66.855469 143.792969 L 88.730469 151.921875 L 107.492188 158.890625 L 128.878906 150.945312 L 128.882812 150.945312 L 148.132812 143.792969 L 153.140625 141.933594 L 187.453125 129.179688 L 187.476562 129.179688 L 187.464844 129.175781 " fill-opacity="1" fill-rule="nonzero"/></g><path fill="#ffffff" d="M 66.855469 147.175781 L 66.855469 163.082031 C 66.855469 163.09375 66.855469 163.105469 66.855469 163.117188 C 66.855469 169.734375 71.359375 175.726562 78.648438 180.078125 C 86.011719 184.476562 96.214844 187.203125 107.492188 187.203125 C 108.945312 187.203125 110.378906 187.15625 111.792969 187.066406 C 122.714844 186.386719 132.34375 183.140625 138.945312 178.367188 C 144.683594 174.214844 148.132812 168.90625 148.132812 163.117188 C 148.132812 163.105469 148.132812 163.09375 148.132812 163.082031 L 148.132812 147.175781 L 107.492188 162.277344 L 66.855469 147.175781 " fill-opacity="1" fill-rule="nonzero"/><g clip-path="url(#58825333b6)"><path fill="#ffffff" d="M 59 183.085938 L 58.976562 182.871094 L 57.65625 169.238281 L 57.601562 168.640625 L 56.964844 162.074219 L 57.5 162.074219 L 57.5 154.773438 C 58.234375 154.117188 58.699219 153.167969 58.699219 152.109375 C 58.699219 151.5625 58.574219 151.050781 58.355469 150.589844 C 58.003906 149.839844 57.398438 149.230469 56.648438 148.871094 L 56.648438 140 L 53.460938 138.816406 L 53.460938 148.902344 C 52.285156 149.496094 51.476562 150.707031 51.476562 152.109375 C 51.476562 153.167969 51.941406 154.117188 52.675781 154.773438 L 52.675781 162.074219 L 53.257812 162.074219 L 52.871094 166.003906 L 52.394531 170.890625 L 51.207031 182.9375 L 51.207031 182.980469 L 50.5625 189.511719 L 49.988281 195.355469 C 49.976562 195.480469 49.972656 195.621094 49.988281 195.75 C 50.183594 197.355469 52.621094 198.5625 55.4375 198.453125 C 58.25 198.34375 60.378906 196.957031 60.183594 195.355469 L 59 183.085938 " fill-opacity="1" fill-rule="nonzero"/></g><g fill="#ffffff" fill-opacity="1"><g transform="translate(2.112941, 253.220877)"><g><path d="M 4.84375 0 L 30.101562 0 C 50.585938 0 63.457031 -9.066406 63.457031 -27.679688 C 63.457031 -47.054688 50.238281 -55.359375 30.101562 -55.359375 L 4.84375 -55.359375 C 5.535156 -51 5.882812 -47.265625 5.882812 -38.753906 L 5.882812 -16.609375 C 5.882812 -8.097656 5.535156 -4.359375 4.84375 0 Z M 29.410156 -2.074219 L 25.257812 -2.074219 L 25.257812 -53.285156 L 29.410156 -53.285156 C 37.714844 -53.285156 42.695312 -45.671875 42.695312 -27.679688 C 42.695312 -10.378906 37.714844 -2.074219 29.410156 -2.074219 Z M 29.410156 -2.074219 "/></g></g></g><g fill="#ffffff" fill-opacity="1"><g transform="translate(92.003527, 253.220877)"><g><path d="M 4.84375 -55.359375 C 5.535156 -51 5.882812 -47.265625 5.882812 -38.753906 L 5.882812 -16.609375 C 5.882812 -8.097656 5.535156 -4.359375 4.84375 0 L 26.296875 0 C 25.605469 -4.359375 25.257812 -8.097656 25.257812 -16.609375 L 25.257812 -38.753906 C 25.257812 -47.265625 25.605469 -51 26.296875 -55.359375 Z M 4.84375 -55.359375 "/></g></g></g><g fill="#ffffff" fill-opacity="1"><g transform="translate(145.426383, 253.220877)"><g><path d="M 2.769531 -15.292969 C 11.070312 -3.253906 19.929688 1.382812 33.078125 1.382812 C 43.25 1.382812 52.109375 -3.527344 52.109375 -14.117188 C 52.109375 -24.84375 44.910156 -29.617188 29.757812 -38.40625 C 17.714844 -45.394531 16.125 -47.195312 16.125 -49.753906 C 16.125 -52.316406 18.890625 -54.667969 23.667969 -54.667969 C 32.871094 -54.667969 36.332031 -45.878906 39.375 -36.953125 L 51.832031 -42.488281 C 43.25 -53.355469 34.808594 -56.746094 24.84375 -56.746094 C 14.878906 -56.746094 5.742188 -52.316406 5.742188 -42.765625 C 5.742188 -34.253906 10.796875 -29.480469 24.289062 -21.175781 C 36.675781 -13.5625 41.726562 -10.519531 41.726562 -6.4375 C 41.726562 -3.320312 39.511719 -0.691406 34.53125 -0.691406 C 25.1875 -0.691406 18.890625 -10.519531 15.222656 -22.90625 Z M 2.769531 -15.292969 "/></g></g></g><g fill="#ffffff" fill-opacity="1"><g transform="translate(222.584405, 253.220877)"><g><path d="M 62.625 -38.753906 C 62.625 -47.265625 62.972656 -51 63.664062 -55.359375 L 42.210938 -55.359375 C 42.90625 -51 43.25 -47.265625 43.25 -38.753906 L 43.25 -28.71875 L 25.257812 -28.71875 L 25.257812 -38.753906 C 25.257812 -47.265625 25.605469 -51 26.296875 -55.359375 L 4.84375 -55.359375 C 5.535156 -51 5.882812 -47.265625 5.882812 -38.753906 L 5.882812 -16.609375 C 5.882812 -8.097656 5.535156 -4.359375 4.84375 0 L 26.296875 0 C 25.605469 -4.359375 25.257812 -8.097656 25.257812 -16.609375 L 25.257812 -26.640625 L 43.25 -26.640625 L 43.25 -16.609375 C 43.25 -8.097656 42.90625 -4.359375 42.210938 0 L 63.664062 0 C 62.972656 -4.359375 62.625 -8.097656 62.625 -16.609375 Z M 62.625 -38.753906 "/></g></g></g><g fill="#ffffff" fill-opacity="1"><g transform="translate(313.374559, 253.220877)"><g><path d="M 52.246094 -9.617188 L 40.066406 -55.359375 L 17.160156 -55.359375 C 17.921875 -52.523438 17.644531 -51.277344 16.953125 -48.507812 L 6.574219 -8.304688 C 5.882812 -5.742188 5.398438 -3.945312 3.460938 0 L 7.128906 0 C 7.40625 -3.667969 7.957031 -5.742188 8.648438 -8.375 L 11.417969 -19.167969 L 29.0625 -19.167969 L 31.625 -9.617188 C 32.664062 -5.742188 33.148438 -4.082031 33.285156 0 L 56.050781 0 C 54.460938 -2.769531 53.421875 -5.121094 52.246094 -9.617188 Z M 11.972656 -21.246094 L 20.066406 -52.730469 L 28.511719 -21.246094 Z M 11.972656 -21.246094 "/></g></g></g></svg>